<svg width="197" height="26" viewBox="0 0 197 26" fill="none" xmlns="http://www.w3.org/2000/svg">
<path d="M20.93 1.41C20.93 1.53133 20.8953 1.644 20.826 1.748C20.7567 1.852 20.6527 1.904 20.514 1.904C20.2887 1.904 20.0633 1.89533 19.838 1.878C19.63 1.86067 19.4047 1.852 19.162 1.852C18.9887 1.852 18.876 1.93 18.824 2.086C18.772 2.242 18.746 2.38933 18.746 2.528C18.746 3.63733 18.7373 4.74667 18.72 5.856C18.72 6.948 18.72 8.05733 18.72 9.184C18.72 10.7613 18.72 12.3387 18.72 13.916C18.7373 15.476 18.746 17.0447 18.746 18.622C18.746 18.7607 18.772 18.908 18.824 19.064C18.876 19.22 18.9887 19.298 19.162 19.298C19.4047 19.298 19.63 19.2893 19.838 19.272C20.0633 19.2547 20.2887 19.246 20.514 19.246C20.6527 19.246 20.748 19.3067 20.8 19.428C20.852 19.5493 20.878 19.6707 20.878 19.792C20.878 20.052 20.7393 20.182 20.462 20.182C20.3233 20.182 20.1847 20.1733 20.046 20.156C19.9073 20.1387 19.7687 20.13 19.63 20.13C19.37 20.0953 19.11 20.078 18.85 20.078C18.59 20.078 18.33 20.078 18.07 20.078C17.4633 20.078 16.8567 20.078 16.25 20.078C15.6607 20.078 15.0627 20.0953 14.456 20.13C14.2827 20.13 14.1007 20.1387 13.91 20.156C13.7367 20.1733 13.5547 20.182 13.364 20.182C13.1907 20.182 13.0693 20.13 13 20.026C12.948 19.922 12.922 19.8007 12.922 19.662C12.922 19.5233 12.974 19.4193 13.078 19.35C13.182 19.2807 13.2947 19.246 13.416 19.246C13.6067 19.246 13.78 19.2547 13.936 19.272C14.1093 19.2893 14.2827 19.298 14.456 19.298C14.716 19.298 14.8893 19.2547 14.976 19.168C15.08 19.064 15.132 18.882 15.132 18.622V10.536H6.578V18.674C6.578 18.934 6.63 19.116 6.734 19.22C6.838 19.3067 7.01133 19.35 7.254 19.35C7.42733 19.35 7.60067 19.3413 7.774 19.324C7.94733 19.3067 8.12067 19.298 8.294 19.298C8.43267 19.298 8.554 19.3327 8.658 19.402C8.762 19.454 8.814 19.558 8.814 19.714C8.814 20.0433 8.658 20.208 8.346 20.208C7.70467 20.208 7.06333 20.182 6.422 20.13C5.798 20.0953 5.174 20.078 4.55 20.078C4.238 20.078 3.91733 20.078 3.588 20.078C3.276 20.078 2.964 20.0867 2.652 20.104C2.42667 20.1213 2.20133 20.1387 1.976 20.156C1.768 20.1907 1.55133 20.208 1.326 20.208C1.20467 20.208 1.10933 20.1473 1.04 20.026C0.988 19.922 0.962 19.8267 0.962 19.74C0.962 19.6533 0.996667 19.558 1.066 19.454C1.13533 19.35 1.222 19.298 1.326 19.298C1.55133 19.298 1.768 19.3067 1.976 19.324C2.20133 19.3413 2.42667 19.35 2.652 19.35C2.84267 19.35 2.964 19.272 3.016 19.116C3.068 18.96 3.094 18.8127 3.094 18.674C3.094 16.958 3.094 15.242 3.094 13.526C3.094 11.81 3.094 10.094 3.094 8.378C3.094 7.40733 3.094 6.43667 3.094 5.466C3.094 4.478 3.094 3.50733 3.094 2.554C3.094 2.41533 3.068 2.268 3.016 2.112C2.964 1.956 2.84267 1.878 2.652 1.878C2.42667 1.878 2.20133 1.88667 1.976 1.904C1.768 1.92133 1.55133 1.93 1.326 1.93C1.04867 1.93 0.91 1.774 0.91 1.462C0.91 1.34067 0.944667 1.228 1.014 1.124C1.08333 1.02 1.18733 0.967999 1.326 0.967999C1.77667 0.967999 2.21867 0.985332 2.652 1.02C3.10267 1.05467 3.55333 1.072 4.004 1.072C4.71467 1.072 5.42533 1.05467 6.136 1.02C6.864 0.985332 7.58333 0.967999 8.294 0.967999C8.62333 0.967999 8.788 1.13267 8.788 1.462C8.788 1.68733 8.69267 1.81733 8.502 1.852C8.32867 1.88667 8.164 1.904 8.008 1.904C7.88667 1.904 7.76533 1.904 7.644 1.904C7.52267 1.88667 7.39267 1.878 7.254 1.878C7.02867 1.878 6.85533 1.94733 6.734 2.086C6.63 2.22467 6.578 2.40667 6.578 2.632V9.678H15.132V2.528C15.132 2.268 15.08 2.09467 14.976 2.008C14.8893 1.904 14.716 1.852 14.456 1.852C14.2827 1.852 14.1093 1.86067 13.936 1.878C13.78 1.89533 13.6067 1.904 13.416 1.904C13.312 1.904 13.1993 1.86067 13.078 1.774C12.974 1.68733 12.922 1.58333 12.922 1.462C12.922 1.13267 13.0867 0.967999 13.416 0.967999C13.624 0.967999 13.832 0.976666 14.04 0.994C14.248 1.01133 14.456 1.02867 14.664 1.046C15.0627 1.06333 15.4613 1.08067 15.86 1.098C16.2587 1.098 16.6573 1.098 17.056 1.098C17.628 1.098 18.2 1.08067 18.772 1.046C19.3613 0.993999 19.942 0.967999 20.514 0.967999C20.6527 0.967999 20.7567 1.01133 20.826 1.098C20.8953 1.18467 20.93 1.28867 20.93 1.41ZM33.1738 13.162C33.1738 12.59 33.1304 11.94 33.0438 11.212C32.9744 10.4667 32.8184 9.74733 32.5758 9.054C32.3331 8.36067 31.9778 7.78867 31.5098 7.338C31.0591 6.87 30.4438 6.636 29.6638 6.636C28.9531 6.636 28.3811 6.86133 27.9478 7.312C27.5144 7.76267 27.1764 8.326 26.9338 9.002C26.7084 9.678 26.5524 10.38 26.4658 11.108C26.3791 11.8187 26.3358 12.434 26.3358 12.954C26.3358 13.526 26.3704 14.1847 26.4398 14.93C26.5264 15.658 26.6911 16.3687 26.9338 17.062C27.1764 17.7553 27.5318 18.3273 27.9998 18.778C28.4678 19.2287 29.0918 19.454 29.8718 19.454C30.5998 19.454 31.1804 19.2373 31.6138 18.804C32.0644 18.3533 32.4024 17.7987 32.6278 17.14C32.8531 16.464 33.0004 15.7707 33.0698 15.06C33.1391 14.332 33.1738 13.6993 33.1738 13.162ZM36.7098 13.292C36.7098 14.6267 36.4064 15.814 35.7998 16.854C35.1931 17.8767 34.3611 18.6827 33.3038 19.272C32.2638 19.8613 31.0764 20.156 29.7418 20.156C28.4071 20.156 27.2284 19.844 26.2058 19.22C25.1831 18.596 24.3771 17.7553 23.7878 16.698C23.2158 15.6407 22.9298 14.4533 22.9298 13.136C22.9298 11.7667 23.2158 10.5447 23.7878 9.47C24.3598 8.378 25.1658 7.52 26.2058 6.896C27.2458 6.25467 28.4591 5.934 29.8458 5.934C31.3711 5.934 32.6364 6.246 33.6418 6.87C34.6644 7.47667 35.4271 8.33467 35.9298 9.444C36.4498 10.536 36.7098 11.8187 36.7098 13.292ZM61.4128 19.688C61.4128 19.9653 61.2655 20.104 60.9708 20.104C60.4681 20.104 59.9655 20.078 59.4628 20.026C58.9601 19.9913 58.4575 19.974 57.9548 19.974C57.4521 19.974 56.9408 19.9913 56.4208 20.026C55.9181 20.078 55.4068 20.104 54.8868 20.104C54.7828 20.104 54.6961 20.0607 54.6268 19.974C54.5748 19.87 54.5488 19.7747 54.5488 19.688C54.5488 19.428 54.7048 19.298 55.0168 19.298C55.1555 19.298 55.2941 19.3067 55.4328 19.324C55.5888 19.324 55.7361 19.324 55.8748 19.324C56.0828 19.324 56.2041 19.2633 56.2388 19.142C56.2735 19.0033 56.2908 18.8473 56.2908 18.674V10.952C56.2908 10.484 56.2735 9.97267 56.2388 9.418C56.2215 8.846 56.1175 8.34333 55.9268 7.91C55.7708 7.52867 55.5715 7.26867 55.3288 7.13C55.1035 6.974 54.7915 6.896 54.3928 6.896C53.9075 6.896 53.4221 7.08667 52.9368 7.468C52.4515 7.84933 52.0615 8.21333 51.7668 8.56C51.8361 8.90667 51.8708 9.262 51.8708 9.626C51.8881 9.97267 51.8968 10.3193 51.8968 10.666C51.8968 12.0007 51.8968 13.3353 51.8968 14.67C51.8968 16.0047 51.8968 17.3393 51.8968 18.674C51.8968 18.882 51.9315 19.0467 52.0008 19.168C52.0875 19.2893 52.2435 19.35 52.4688 19.35C52.5901 19.35 52.7028 19.3413 52.8068 19.324C52.9281 19.3067 53.0495 19.298 53.1708 19.298C53.4308 19.298 53.5608 19.428 53.5608 19.688C53.5608 19.9653 53.4135 20.104 53.1188 20.104C52.6335 20.104 52.1395 20.078 51.6368 20.026C51.1515 19.9913 50.6575 19.974 50.1548 19.974C49.6521 19.974 49.1495 19.9913 48.6468 20.026C48.1441 20.078 47.6415 20.104 47.1388 20.104C47.0175 20.104 46.9308 20.0607 46.8788 19.974C46.8268 19.87 46.8008 19.7747 46.8008 19.688C46.8008 19.4973 46.8788 19.3847 47.0348 19.35C47.1908 19.298 47.3641 19.2807 47.5548 19.298C47.7628 19.3153 47.9188 19.324 48.0228 19.324C48.2655 19.324 48.4128 19.272 48.4648 19.168C48.5168 19.0467 48.5428 18.882 48.5428 18.674C48.5428 17.3913 48.5341 16.1087 48.5168 14.826C48.5168 13.526 48.5168 12.2347 48.5168 10.952C48.5168 10.484 48.4995 9.97267 48.4648 9.418C48.4475 8.846 48.3435 8.34333 48.1528 7.91C47.9795 7.51133 47.7715 7.25133 47.5288 7.13C47.2861 7.00867 46.9568 6.948 46.5408 6.948C46.3155 6.948 46.0381 7.06067 45.7088 7.286C45.3795 7.494 45.0675 7.73667 44.7728 8.014C44.4781 8.29133 44.2528 8.51667 44.0968 8.69C44.0968 10.354 44.0968 12.018 44.0968 13.682C44.0968 15.346 44.0968 17.01 44.0968 18.674C44.0968 18.882 44.1315 19.0467 44.2008 19.168C44.2875 19.2893 44.4435 19.35 44.6688 19.35C44.7901 19.35 44.9115 19.3413 45.0328 19.324C45.1541 19.3067 45.2755 19.298 45.3968 19.298C45.6395 19.298 45.7608 19.428 45.7608 19.688C45.7608 19.9653 45.6221 20.104 45.3448 20.104C44.8421 20.104 44.3395 20.0867 43.8368 20.052C43.3515 20.0173 42.8575 20 42.3548 20C41.8348 20 41.3148 20.0173 40.7948 20.052C40.2921 20.0867 39.7808 20.104 39.2608 20.104C39.1395 20.104 39.0441 20.0607 38.9748 19.974C38.9228 19.87 38.8968 19.7747 38.8968 19.688C38.8968 19.428 39.0441 19.298 39.3388 19.298C39.4775 19.298 39.6161 19.3067 39.7548 19.324C39.9108 19.324 40.0668 19.324 40.2228 19.324C40.4655 19.324 40.6041 19.2027 40.6388 18.96C40.6908 18.7173 40.7168 18.5093 40.7168 18.336C40.7168 16.6893 40.7168 15.0427 40.7168 13.396C40.7168 11.7493 40.7168 10.1027 40.7168 8.456C40.7168 8.26533 40.6908 8.05733 40.6388 7.832C40.5868 7.60667 40.4221 7.494 40.1448 7.494C39.9541 7.494 39.7548 7.51133 39.5468 7.546C39.3561 7.56333 39.1655 7.572 38.9748 7.572C38.8708 7.572 38.7668 7.546 38.6628 7.494C38.5761 7.42467 38.5328 7.32933 38.5328 7.208C38.5328 7.08667 38.5675 7 38.6368 6.948C38.7235 6.896 38.8015 6.86133 38.8708 6.844C39.0961 6.77467 39.3301 6.73133 39.5728 6.714C39.8155 6.69667 40.0495 6.67067 40.2748 6.636C40.4828 6.584 40.7775 6.506 41.1588 6.402C41.5575 6.298 41.9475 6.20267 42.3288 6.116C42.7101 6.012 42.9701 5.96 43.1088 5.96C43.3168 5.96 43.4641 6.05533 43.5508 6.246C43.6721 6.43667 43.7588 6.662 43.8108 6.922C43.8628 7.16467 43.9235 7.39867 43.9928 7.624C44.6168 7.104 45.2408 6.714 45.8648 6.454C46.4888 6.17667 47.2081 6.038 48.0228 6.038C48.6815 6.038 49.3228 6.168 49.9468 6.428C50.5881 6.688 51.0735 7.11267 51.4028 7.702C52.0095 7.16467 52.6421 6.74 53.3008 6.428C53.9595 6.116 54.6875 5.96 55.4848 5.96C56.6808 5.96 57.5735 6.12467 58.1628 6.454C58.7521 6.78333 59.1421 7.29467 59.3328 7.988C59.5408 8.664 59.6448 9.55667 59.6448 10.666C59.6448 12.0007 59.6448 13.3353 59.6448 14.67C59.6448 16.0047 59.6448 17.3393 59.6448 18.674C59.6448 18.9513 59.7141 19.1333 59.8528 19.22C60.0088 19.3067 60.1908 19.3413 60.3988 19.324C60.6241 19.3067 60.8321 19.298 61.0228 19.298C61.2828 19.298 61.4128 19.428 61.4128 19.688ZM71.6288 10.874C71.6288 10.5273 71.6114 10.1113 71.5768 9.626C71.5421 9.14067 71.4554 8.67267 71.3168 8.222C71.1954 7.754 70.9961 7.364 70.7188 7.052C70.4414 6.74 70.0601 6.584 69.5748 6.584C69.1068 6.584 68.6908 6.74 68.3268 7.052C67.9801 7.34667 67.6854 7.728 67.4428 8.196C67.2001 8.64667 67.0094 9.12333 66.8708 9.626C66.7321 10.1113 66.6281 10.5447 66.5588 10.926C66.8534 10.926 67.1394 10.9347 67.4168 10.952C67.7114 10.952 67.9974 10.952 68.2748 10.952C69.4014 10.952 70.5194 10.926 71.6288 10.874ZM75.3728 16.62C75.3728 16.672 75.3554 16.75 75.3208 16.854C75.3034 16.9407 75.2774 17.01 75.2428 17.062C75.1214 17.3393 74.8961 17.66 74.5668 18.024C74.2374 18.3707 73.9428 18.6393 73.6828 18.83C72.5214 19.714 71.1781 20.156 69.6528 20.156C68.2834 20.156 67.0961 19.87 66.0908 19.298C65.0854 18.7087 64.3141 17.894 63.7768 16.854C63.2394 15.814 62.9708 14.618 62.9708 13.266C62.9708 11.914 63.2308 10.692 63.7508 9.6C64.2881 8.49067 65.0508 7.61533 66.0388 6.974C67.0441 6.31533 68.2488 5.986 69.6528 5.986C71.2648 5.986 72.5561 6.428 73.5268 7.312C74.4974 8.196 74.9828 9.46133 74.9828 11.108C74.9828 11.5587 74.7748 11.784 74.3588 11.784C73.5961 11.784 72.8334 11.7753 72.0708 11.758C71.3081 11.7407 70.5454 11.732 69.7828 11.732C69.2281 11.732 68.6734 11.732 68.1188 11.732C67.5641 11.732 67.0094 11.7407 66.4548 11.758C66.4028 12.278 66.3768 12.8067 66.3768 13.344C66.3768 13.8293 66.4374 14.4013 66.5588 15.06C66.6974 15.7187 66.8968 16.36 67.1568 16.984C67.4341 17.608 67.7894 18.128 68.2228 18.544C68.6561 18.9427 69.1848 19.142 69.8088 19.142C70.5888 19.142 71.2388 19.0293 71.7588 18.804C72.2961 18.5787 72.7728 18.258 73.1888 17.842C73.6048 17.426 74.0294 16.932 74.4628 16.36C74.5148 16.2907 74.5668 16.2387 74.6188 16.204C74.6881 16.152 74.7661 16.126 74.8528 16.126C74.9741 16.126 75.0868 16.178 75.1908 16.282C75.3121 16.3687 75.3728 16.4813 75.3728 16.62ZM94.3768 15.632C94.3768 15.7187 94.3334 15.84 94.2468 15.996C94.1601 16.152 94.0994 16.2733 94.0648 16.36C93.8394 16.7587 93.4928 17.1747 93.0248 17.608C92.5568 18.0413 92.1234 18.3967 91.7248 18.674C90.9101 19.246 90.0521 19.6187 89.1508 19.792C88.2494 19.9653 87.3134 20.052 86.3428 20.052C84.4534 20.052 82.8414 19.662 81.5068 18.882C80.1721 18.0847 79.1494 16.984 78.4388 15.58C77.7454 14.1587 77.3988 12.5207 77.3988 10.666C77.3988 8.82867 77.7368 7.17333 78.4128 5.7C79.0888 4.22667 80.0854 3.05667 81.4028 2.19C82.7374 1.306 84.3668 0.863998 86.2908 0.863998C87.1574 0.863998 87.8941 0.967999 88.5008 1.176C89.1074 1.384 89.7921 1.62667 90.5548 1.904C90.9188 2.02533 91.2828 2.12067 91.6468 2.19C92.0108 2.242 92.3834 2.28533 92.7648 2.32C92.7821 2.70133 92.8081 3.09133 92.8428 3.49C92.8774 3.87133 92.9208 4.26133 92.9728 4.66C93.0074 4.98933 93.0681 5.32733 93.1548 5.674C93.2414 6.02067 93.2848 6.36733 93.2848 6.714C93.2848 7.04333 93.1634 7.286 92.9208 7.442C92.6954 7.598 92.4354 7.676 92.1408 7.676C91.6554 7.676 91.3174 7.47667 91.1268 7.078C91.0748 6.93933 91.0401 6.792 91.0228 6.636C91.0054 6.46267 90.9794 6.31533 90.9448 6.194C90.8234 5.63933 90.6068 5.04133 90.2947 4.4C90.0001 3.74133 89.6448 3.22133 89.2288 2.84C88.8994 2.54533 88.4488 2.28533 87.8768 2.06C87.3048 1.81733 86.7934 1.696 86.3428 1.696C85.9094 1.696 85.5021 1.79133 85.1208 1.982C84.7568 2.17267 84.4014 2.40667 84.0548 2.684C83.3094 3.308 82.7201 4.05333 82.2868 4.92C81.8534 5.78667 81.5501 6.714 81.3768 7.702C81.2034 8.67267 81.1168 9.626 81.1168 10.562C81.1168 11.186 81.1514 11.81 81.2208 12.434C81.3074 13.0407 81.4374 13.6473 81.6108 14.254C81.8534 15.0687 82.2001 15.84 82.6507 16.568C83.1188 17.2787 83.6908 17.8593 84.3668 18.31C85.0601 18.7433 85.8574 18.96 86.7588 18.96C88.0414 18.96 89.2028 18.6393 90.2428 17.998C91.3001 17.3567 92.1754 16.516 92.8688 15.476C92.9728 15.3027 93.0768 15.1553 93.1808 15.034C93.3021 14.8953 93.4754 14.826 93.7008 14.826C93.9261 14.826 94.0908 14.9127 94.1948 15.086C94.3161 15.2593 94.3768 15.4413 94.3768 15.632ZM106.223 13.162C106.223 12.59 106.179 11.94 106.093 11.212C106.023 10.4667 105.867 9.74733 105.625 9.054C105.382 8.36067 105.027 7.78867 104.559 7.338C104.108 6.87 103.493 6.636 102.713 6.636C102.002 6.636 101.43 6.86133 100.997 7.312C100.563 7.76267 100.225 8.326 99.9826 9.002C99.7573 9.678 99.6013 10.38 99.5146 11.108C99.4279 11.8187 99.3846 12.434 99.3846 12.954C99.3846 13.526 99.4193 14.1847 99.4886 14.93C99.5753 15.658 99.7399 16.3687 99.9826 17.062C100.225 17.7553 100.581 18.3273 101.049 18.778C101.517 19.2287 102.141 19.454 102.921 19.454C103.649 19.454 104.229 19.2373 104.663 18.804C105.113 18.3533 105.451 17.7987 105.677 17.14C105.902 16.464 106.049 15.7707 106.119 15.06C106.188 14.332 106.223 13.6993 106.223 13.162ZM109.759 13.292C109.759 14.6267 109.455 15.814 108.849 16.854C108.242 17.8767 107.41 18.6827 106.353 19.272C105.313 19.8613 104.125 20.156 102.791 20.156C101.456 20.156 100.277 19.844 99.2546 19.22C98.2319 18.596 97.4259 17.7553 96.8366 16.698C96.2646 15.6407 95.9786 14.4533 95.9786 13.136C95.9786 11.7667 96.2646 10.5447 96.8366 9.47C97.4086 8.378 98.2146 7.52 99.2546 6.896C100.295 6.25467 101.508 5.934 102.895 5.934C104.42 5.934 105.685 6.246 106.691 6.87C107.713 7.47667 108.476 8.33467 108.979 9.444C109.499 10.536 109.759 11.8187 109.759 13.292ZM134.462 19.688C134.462 19.9653 134.314 20.104 134.02 20.104C133.517 20.104 133.014 20.078 132.512 20.026C132.009 19.9913 131.506 19.974 131.004 19.974C130.501 19.974 129.99 19.9913 129.47 20.026C128.967 20.078 128.456 20.104 127.936 20.104C127.832 20.104 127.745 20.0607 127.676 19.974C127.624 19.87 127.598 19.7747 127.598 19.688C127.598 19.428 127.754 19.298 128.066 19.298C128.204 19.298 128.343 19.3067 128.482 19.324C128.638 19.324 128.785 19.324 128.924 19.324C129.132 19.324 129.253 19.2633 129.288 19.142C129.322 19.0033 129.34 18.8473 129.34 18.674V10.952C129.34 10.484 129.322 9.97267 129.288 9.418C129.27 8.846 129.166 8.34333 128.976 7.91C128.82 7.52867 128.62 7.26867 128.378 7.13C128.152 6.974 127.84 6.896 127.442 6.896C126.956 6.896 126.471 7.08667 125.986 7.468C125.5 7.84933 125.11 8.21333 124.816 8.56C124.885 8.90667 124.92 9.262 124.92 9.626C124.937 9.97267 124.946 10.3193 124.946 10.666C124.946 12.0007 124.946 13.3353 124.946 14.67C124.946 16.0047 124.946 17.3393 124.946 18.674C124.946 18.882 124.98 19.0467 125.05 19.168C125.136 19.2893 125.292 19.35 125.518 19.35C125.639 19.35 125.752 19.3413 125.856 19.324C125.977 19.3067 126.098 19.298 126.22 19.298C126.48 19.298 126.61 19.428 126.61 19.688C126.61 19.9653 126.462 20.104 126.168 20.104C125.682 20.104 125.188 20.078 124.686 20.026C124.2 19.9913 123.706 19.974 123.204 19.974C122.701 19.974 122.198 19.9913 121.696 20.026C121.193 20.078 120.69 20.104 120.188 20.104C120.066 20.104 119.98 20.0607 119.928 19.974C119.876 19.87 119.85 19.7747 119.85 19.688C119.85 19.4973 119.928 19.3847 120.084 19.35C120.24 19.298 120.413 19.2807 120.604 19.298C120.812 19.3153 120.968 19.324 121.072 19.324C121.314 19.324 121.462 19.272 121.514 19.168C121.566 19.0467 121.592 18.882 121.592 18.674C121.592 17.3913 121.583 16.1087 121.566 14.826C121.566 13.526 121.566 12.2347 121.566 10.952C121.566 10.484 121.548 9.97267 121.514 9.418C121.496 8.846 121.392 8.34333 121.202 7.91C121.028 7.51133 120.82 7.25133 120.578 7.13C120.335 7.00867 120.006 6.948 119.59 6.948C119.364 6.948 119.087 7.06067 118.758 7.286C118.428 7.494 118.116 7.73667 117.822 8.014C117.527 8.29133 117.302 8.51667 117.146 8.69C117.146 10.354 117.146 12.018 117.146 13.682C117.146 15.346 117.146 17.01 117.146 18.674C117.146 18.882 117.18 19.0467 117.25 19.168C117.336 19.2893 117.492 19.35 117.718 19.35C117.839 19.35 117.96 19.3413 118.082 19.324C118.203 19.3067 118.324 19.298 118.446 19.298C118.688 19.298 118.81 19.428 118.81 19.688C118.81 19.9653 118.671 20.104 118.394 20.104C117.891 20.104 117.388 20.0867 116.886 20.052C116.4 20.0173 115.906 20 115.404 20C114.884 20 114.364 20.0173 113.844 20.052C113.341 20.0867 112.83 20.104 112.31 20.104C112.188 20.104 112.093 20.0607 112.024 19.974C111.972 19.87 111.946 19.7747 111.946 19.688C111.946 19.428 112.093 19.298 112.388 19.298C112.526 19.298 112.665 19.3067 112.804 19.324C112.96 19.324 113.116 19.324 113.272 19.324C113.514 19.324 113.653 19.2027 113.688 18.96C113.74 18.7173 113.766 18.5093 113.766 18.336C113.766 16.6893 113.766 15.0427 113.766 13.396C113.766 11.7493 113.766 10.1027 113.766 8.456C113.766 8.26533 113.74 8.05733 113.688 7.832C113.636 7.60667 113.471 7.494 113.194 7.494C113.003 7.494 112.804 7.51133 112.596 7.546C112.405 7.56333 112.214 7.572 112.024 7.572C111.92 7.572 111.816 7.546 111.712 7.494C111.625 7.42467 111.582 7.32933 111.582 7.208C111.582 7.08667 111.616 7 111.686 6.948C111.772 6.896 111.85 6.86133 111.92 6.844C112.145 6.77467 112.379 6.73133 112.622 6.714C112.864 6.69667 113.098 6.67067 113.324 6.636C113.532 6.584 113.826 6.506 114.208 6.402C114.606 6.298 114.996 6.20267 115.378 6.116C115.759 6.012 116.019 5.96 116.158 5.96C116.366 5.96 116.513 6.05533 116.6 6.246C116.721 6.43667 116.808 6.662 116.86 6.922C116.912 7.16467 116.972 7.39867 117.042 7.624C117.666 7.104 118.29 6.714 118.914 6.454C119.538 6.17667 120.257 6.038 121.072 6.038C121.73 6.038 122.372 6.168 122.996 6.428C123.637 6.688 124.122 7.11267 124.452 7.702C125.058 7.16467 125.691 6.74 126.35 6.428C127.008 6.116 127.736 5.96 128.534 5.96C129.73 5.96 130.622 6.12467 131.212 6.454C131.801 6.78333 132.191 7.29467 132.382 7.988C132.59 8.664 132.694 9.55667 132.694 10.666C132.694 12.0007 132.694 13.3353 132.694 14.67C132.694 16.0047 132.694 17.3393 132.694 18.674C132.694 18.9513 132.763 19.1333 132.902 19.22C133.058 19.3067 133.24 19.3413 133.448 19.324C133.673 19.3067 133.881 19.298 134.072 19.298C134.332 19.298 134.462 19.428 134.462 19.688ZM146.16 13.084C146.16 12.72 146.151 12.2867 146.134 11.784C146.116 11.264 146.064 10.7353 145.978 10.198C145.908 9.64333 145.778 9.132 145.588 8.664C145.414 8.17867 145.163 7.78867 144.834 7.494C144.504 7.19933 144.08 7.052 143.56 7.052C142.866 7.052 142.294 7.25133 141.844 7.65C141.41 8.04867 141.055 8.55133 140.778 9.158V15.944C140.778 16.3773 140.856 16.854 141.012 17.374C141.185 17.8767 141.445 18.31 141.792 18.674C142.138 19.0207 142.572 19.194 143.092 19.194C143.854 19.194 144.444 18.986 144.86 18.57C145.293 18.1367 145.596 17.5993 145.77 16.958C145.96 16.3167 146.073 15.6493 146.108 14.956C146.142 14.2453 146.16 13.6213 146.16 13.084ZM149.722 12.72C149.722 14.124 149.488 15.372 149.02 16.464C148.552 17.5387 147.832 18.388 146.862 19.012C145.891 19.6187 144.66 19.922 143.17 19.922C142.788 19.922 142.364 19.8353 141.896 19.662C141.445 19.4713 141.064 19.2807 140.752 19.09C140.752 19.4713 140.743 19.8527 140.726 20.234C140.726 20.6327 140.734 21.0313 140.752 21.43V23.536C140.752 23.692 140.778 23.848 140.83 24.004C140.899 24.16 141.029 24.238 141.22 24.238C141.358 24.238 141.497 24.2293 141.636 24.212C141.792 24.212 141.939 24.212 142.078 24.212C142.32 24.212 142.442 24.342 142.442 24.602C142.442 24.8793 142.312 25.018 142.052 25.018C141.566 25.018 141.081 25.0007 140.596 24.966C140.11 24.9313 139.616 24.914 139.114 24.914C138.611 24.914 138.1 24.9313 137.58 24.966C137.06 25.0007 136.548 25.018 136.046 25.018C135.924 25.018 135.838 24.966 135.786 24.862C135.734 24.7753 135.708 24.6887 135.708 24.602C135.708 24.342 135.838 24.212 136.098 24.212C136.236 24.212 136.375 24.212 136.514 24.212C136.652 24.2293 136.782 24.238 136.904 24.238C137.094 24.238 137.233 24.1687 137.32 24.03C137.406 23.9087 137.45 23.7613 137.45 23.588C137.45 21.0573 137.45 18.5267 137.45 15.996C137.467 13.448 137.476 10.9087 137.476 8.378C137.476 8.18733 137.45 7.97933 137.398 7.754C137.346 7.52867 137.19 7.416 136.93 7.416C136.756 7.416 136.583 7.42467 136.41 7.442C136.254 7.45933 136.089 7.468 135.916 7.468C135.812 7.468 135.69 7.45067 135.552 7.416C135.43 7.364 135.37 7.26867 135.37 7.13C135.37 7.026 135.404 6.948 135.474 6.896C135.543 6.844 135.621 6.80933 135.708 6.792C135.898 6.72267 136.098 6.67933 136.306 6.662C136.514 6.64467 136.713 6.61867 136.904 6.584C137.788 6.428 138.637 6.22 139.452 5.96C139.521 5.92533 139.59 5.89933 139.66 5.882C139.729 5.84733 139.798 5.83 139.868 5.83C139.989 5.83 140.093 5.934 140.18 6.142C140.284 6.35 140.362 6.57533 140.414 6.818C140.483 7.06067 140.535 7.234 140.57 7.338C140.812 7.19933 141.159 7.04333 141.61 6.87C142.06 6.67933 142.511 6.51467 142.962 6.376C143.43 6.22 143.794 6.142 144.054 6.142C144.938 6.142 145.726 6.33267 146.42 6.714C147.113 7.09533 147.702 7.60667 148.188 8.248C148.69 8.872 149.072 9.574 149.332 10.354C149.592 11.134 149.722 11.9227 149.722 12.72ZM159.352 17.244C159.3 16.4293 159.265 15.6147 159.248 14.8C159.231 13.968 159.231 13.136 159.248 12.304C158.537 12.4253 157.844 12.6507 157.168 12.98C156.509 13.292 155.963 13.7167 155.53 14.254C155.097 14.7913 154.88 15.476 154.88 16.308C154.88 16.6547 154.923 17.0273 155.01 17.426C155.114 17.8247 155.287 18.1627 155.53 18.44C155.79 18.7 156.137 18.83 156.57 18.83C156.882 18.83 157.211 18.7433 157.558 18.57C157.905 18.3793 158.234 18.1627 158.546 17.92C158.875 17.6773 159.144 17.452 159.352 17.244ZM164.708 18.778C164.708 18.8473 164.673 18.9253 164.604 19.012C164.552 19.0987 164.5 19.168 164.448 19.22C163.911 19.844 163.217 20.156 162.368 20.156C161.623 20.156 161.025 19.9913 160.574 19.662C160.123 19.3327 159.777 18.8213 159.534 18.128C158.979 18.7173 158.381 19.1853 157.74 19.532C157.116 19.8787 156.379 20.052 155.53 20.052C154.923 20.052 154.308 19.922 153.684 19.662C153.077 19.3847 152.566 18.9947 152.15 18.492C151.751 17.9893 151.552 17.4087 151.552 16.75C151.552 16.0913 151.717 15.5107 152.046 15.008C152.393 14.488 152.826 14.046 153.346 13.682C153.866 13.3007 154.395 12.9887 154.932 12.746C155.625 12.4513 156.336 12.226 157.064 12.07C157.792 11.8967 158.52 11.7233 159.248 11.55V11.446C159.248 11.134 159.239 10.718 159.222 10.198C159.222 9.66067 159.17 9.132 159.066 8.612C158.962 8.07467 158.789 7.624 158.546 7.26C158.303 6.87867 157.948 6.688 157.48 6.688C156.943 6.688 156.457 6.844 156.024 7.156C155.608 7.468 155.313 7.884 155.14 8.404C155.105 8.56 155.079 8.716 155.062 8.872C155.045 9.01067 155.019 9.158 154.984 9.314C154.949 9.59133 154.785 9.782 154.49 9.886C154.213 9.97267 153.953 10.016 153.71 10.016C153.415 10.016 153.129 9.95533 152.852 9.834C152.575 9.69533 152.436 9.444 152.436 9.08C152.436 8.94133 152.453 8.82 152.488 8.716C152.54 8.59467 152.592 8.47333 152.644 8.352C152.921 7.69333 153.337 7.208 153.892 6.896C154.447 6.584 155.053 6.376 155.712 6.272C156.388 6.168 157.029 6.116 157.636 6.116C159.057 6.116 160.227 6.49733 161.146 7.26C162.065 8.02267 162.524 9.14933 162.524 10.64V14.566C162.507 15.0513 162.498 15.554 162.498 16.074C162.515 16.5767 162.541 17.0793 162.576 17.582C162.611 17.8767 162.68 18.1627 162.784 18.44C162.888 18.7 163.122 18.83 163.486 18.83C163.729 18.83 163.928 18.778 164.084 18.674C164.257 18.57 164.413 18.518 164.552 18.518C164.621 18.518 164.665 18.5527 164.682 18.622C164.699 18.6913 164.708 18.7433 164.708 18.778ZM180.645 19.636C180.645 19.9133 180.506 20.052 180.229 20.052C179.726 20.052 179.215 20.0347 178.695 20C178.192 19.9827 177.689 19.974 177.187 19.974C176.701 19.974 176.207 19.9827 175.705 20C175.202 20.0347 174.699 20.052 174.197 20.052C174.075 20.052 173.989 20.0087 173.937 19.922C173.885 19.818 173.859 19.714 173.859 19.61C173.859 19.35 173.997 19.22 174.275 19.22C174.431 19.22 174.587 19.2287 174.743 19.246C174.899 19.246 175.055 19.246 175.211 19.246C175.471 19.246 175.601 19.1333 175.601 18.908C175.601 17.452 175.601 15.996 175.601 14.54C175.618 13.084 175.627 11.628 175.627 10.172C175.627 9.704 175.583 9.21867 175.497 8.716C175.427 8.21333 175.254 7.78867 174.977 7.442C174.717 7.09533 174.283 6.922 173.677 6.922C173.295 6.922 172.897 7.06067 172.481 7.338C172.082 7.61533 171.718 7.94467 171.389 8.326C171.077 8.70733 170.851 9.06267 170.713 9.392V18.596C170.713 18.752 170.73 18.8993 170.765 19.038C170.817 19.1767 170.938 19.246 171.129 19.246C171.267 19.246 171.406 19.246 171.545 19.246C171.701 19.2287 171.848 19.22 171.987 19.22C172.073 19.22 172.16 19.2547 172.247 19.324C172.333 19.3933 172.377 19.4713 172.377 19.558C172.377 19.8873 172.238 20.052 171.961 20.052C171.475 20.052 170.99 20.0347 170.505 20C170.037 19.948 169.551 19.922 169.049 19.922C168.529 19.922 168 19.948 167.463 20C166.943 20.0347 166.414 20.052 165.877 20.052C165.755 20.052 165.669 20.0087 165.617 19.922C165.565 19.818 165.539 19.714 165.539 19.61C165.539 19.35 165.677 19.22 165.955 19.22C166.111 19.22 166.267 19.2287 166.423 19.246C166.579 19.246 166.743 19.246 166.917 19.246C167.159 19.246 167.298 19.194 167.333 19.09C167.367 18.986 167.385 18.8213 167.385 18.596V14.826C167.385 13.7687 167.385 12.7113 167.385 11.654C167.385 10.5967 167.385 9.53933 167.385 8.482C167.385 8.29133 167.359 8.08333 167.307 7.858C167.255 7.61533 167.099 7.494 166.839 7.494C166.665 7.494 166.492 7.50267 166.319 7.52C166.163 7.53733 165.998 7.546 165.825 7.546C165.721 7.546 165.599 7.52867 165.461 7.494C165.339 7.442 165.279 7.34667 165.279 7.208C165.279 7.104 165.313 7.026 165.383 6.974C165.452 6.922 165.53 6.88733 165.617 6.87C165.79 6.818 165.972 6.78333 166.163 6.766C166.353 6.74867 166.535 6.72267 166.709 6.688C167.159 6.60133 167.601 6.506 168.035 6.402C168.485 6.28067 168.927 6.15933 169.361 6.038C169.43 6.00333 169.499 5.97733 169.569 5.96C169.638 5.92533 169.707 5.908 169.777 5.908C169.915 5.908 170.037 6.038 170.141 6.298C170.262 6.558 170.357 6.83533 170.427 7.13C170.513 7.42467 170.565 7.63267 170.583 7.754C171.085 7.30333 171.692 6.90467 172.403 6.558C173.113 6.194 173.815 6.012 174.509 6.012C175.67 6.012 176.571 6.15933 177.213 6.454C177.871 6.74867 178.339 7.24267 178.617 7.936C178.894 8.612 179.033 9.522 179.033 10.666C179.033 12.018 179.024 13.37 179.007 14.722C178.989 16.074 178.981 17.426 178.981 18.778C178.981 18.9513 179.033 19.0813 179.137 19.168C179.258 19.2373 179.405 19.272 179.579 19.272C179.7 19.272 179.813 19.2633 179.917 19.246C180.038 19.2287 180.159 19.22 180.281 19.22C180.523 19.22 180.645 19.3587 180.645 19.636ZM196.864 6.454C196.864 6.69667 196.743 6.82667 196.5 6.844C196.258 6.844 196.05 6.844 195.876 6.844C195.651 6.844 195.469 6.922 195.33 7.078C195.192 7.21667 195.079 7.38133 194.992 7.572C194.316 9.028 193.632 10.4753 192.938 11.914C192.245 13.3527 191.569 14.8 190.91 16.256C190.477 17.2613 190.018 18.2753 189.532 19.298C189.064 20.3033 188.579 21.3 188.076 22.288C187.938 22.5653 187.79 22.8427 187.634 23.12C187.496 23.4147 187.34 23.7093 187.166 24.004C186.854 24.4893 186.473 24.836 186.022 25.044C185.572 25.2693 185.06 25.382 184.488 25.382C183.899 25.382 183.37 25.2 182.902 24.836C182.434 24.4893 182.2 23.9953 182.2 23.354C182.2 22.9553 182.348 22.626 182.642 22.366C182.954 22.1233 183.301 22.002 183.682 22.002C183.873 22.002 184.038 22.0367 184.176 22.106C184.159 22.5913 184.237 22.9293 184.41 23.12C184.584 23.328 184.913 23.432 185.398 23.432C185.554 23.432 185.71 23.3887 185.866 23.302C186.022 23.2327 186.161 23.1547 186.282 23.068C186.438 22.9467 186.62 22.73 186.828 22.418C187.054 22.1233 187.253 21.8027 187.426 21.456C187.617 21.1267 187.73 20.8667 187.764 20.676C187.782 20.5893 187.799 20.494 187.816 20.39C187.834 20.286 187.842 20.1907 187.842 20.104C187.842 19.6013 187.721 18.96 187.478 18.18C187.236 17.3827 186.932 16.542 186.568 15.658C186.222 14.774 185.875 13.942 185.528 13.162C185.182 12.3647 184.904 11.706 184.696 11.186C184.471 10.5967 184.228 10.0073 183.968 9.418C183.726 8.81133 183.431 8.248 183.084 7.728C182.894 7.43333 182.668 7.26867 182.408 7.234C182.166 7.19933 181.888 7.182 181.576 7.182C181.507 7.182 181.429 7.156 181.342 7.104C181.273 7.052 181.238 6.98267 181.238 6.896C181.238 6.65333 181.351 6.506 181.576 6.454C182.062 6.36733 182.564 6.30667 183.084 6.272C183.622 6.22 184.133 6.15933 184.618 6.09C184.809 6.05533 184.991 6.02933 185.164 6.012C185.355 5.99467 185.537 5.986 185.71 5.986C185.953 5.986 186.118 6.038 186.204 6.142C186.291 6.22867 186.369 6.36733 186.438 6.558C186.681 7.078 186.898 7.60667 187.088 8.144C187.296 8.68133 187.496 9.22733 187.686 9.782C188.05 10.8047 188.432 11.836 188.83 12.876C189.229 13.916 189.593 14.9647 189.922 16.022C190.061 15.71 190.26 15.242 190.52 14.618C190.798 13.9767 191.092 13.2747 191.404 12.512C191.734 11.732 192.046 10.9607 192.34 10.198C192.635 9.43533 192.878 8.75933 193.068 8.17C193.259 7.56333 193.354 7.13867 193.354 6.896C193.354 6.80933 193.302 6.766 193.198 6.766C193.094 6.74867 193.016 6.74 192.964 6.74C192.791 6.74 192.609 6.74867 192.418 6.766C192.245 6.766 192.063 6.766 191.872 6.766C191.734 6.766 191.612 6.74867 191.508 6.714C191.404 6.67933 191.352 6.57533 191.352 6.402C191.352 6.194 191.404 6.08133 191.508 6.064C191.63 6.04667 191.76 6.038 191.898 6.038C192.661 6.038 193.424 6.038 194.186 6.038C194.966 6.02067 195.729 6.012 196.474 6.012C196.734 6.012 196.864 6.15933 196.864 6.454Z" fill="white"/>
</svg>
